<svg xmlns="http://www.w3.org/2000/svg" viewBox="0 0 285 107" preserveAspectRatio="xMidYMid meet"><g fill="#ffffff"><path d="M249 4L249 102L280 102L280 89L262 88L262 60L280 59L280 47L262 46L262 18L280 17L280 4Z"/><path d="M194 4L194 102L206 102L207 42L229 101L243 102L243 5L230 4L229 64L207 5Z"/><path d="M140 4L140 8L158 67L158 102L171 102L171 65L189 4L176 4L166 48L164 50L153 5Z"/><path d="M50 4L49 102L71 102L89 28L90 102L111 102L136 5L121 5L103 99L102 4L81 4L63 100L62 4Z"/><path d="M4 4L4 17L16 17L17 18L17 102L30 102L30 18L31 17L44 17L44 5L43 4Z"/></g></svg>